<svg xmlns="http://www.w3.org/2000/svg" viewBox="0 0 1600 900"><defs><linearGradient id="bg" x2="0" y2="1"><stop stop-color="#505457"/><stop offset="1" stop-color="#17191a"/></linearGradient><linearGradient id="light" x2="1"><stop stop-color="#fff" stop-opacity=".85"/><stop offset="1" stop-color="#fff" stop-opacity="0"/></linearGradient></defs><rect width="1600" height="900" fill="url(#bg)"/><path d="M0 700L440 330h720l440 370v200H0z" fill="#25292b"/><path d="M430 330h740l300 570H130z" fill="#34383a" opacity=".85"/><path d="M0 640L460 260h680l460 380" fill="none" stroke="#d7a36a" stroke-opacity=".3" stroke-width="4"/><path d="M230 0l280 420M1370 0l-280 420M490 0l190 420M1110 0L930 420" stroke="#6b6f70" stroke-width="7"/><path d="M350 0h900" stroke="#dfe0dc" stroke-opacity=".65" stroke-width="32"/><path d="M275 140h1050" stroke="url(#light)" stroke-width="26" opacity=".45"/><path d="M245 650h1110M400 520h800" stroke="#777b7b" stroke-width="5" opacity=".45"/><path d="M600 900l190-450M1000 900L810 450" stroke="#1b1e20" stroke-width="11"/><rect x="650" y="340" width="300" height="110" rx="8" fill="#101214" opacity=".7"/><text x="800" y="410" fill="#d7a36a" font-size="34" text-anchor="middle" font-family="Arial" letter-spacing="8">INJEKT</text></svg>
